<svg width="35" height="35" viewBox="0 0 35 35" fill="none" xmlns="http://www.w3.org/2000/svg">
<path d="M29.7792 6.679C29.0476 5.94484 28.1782 5.36233 27.221 4.96486C26.2638 4.56739 25.2375 4.36279 24.201 4.36279C23.1646 4.36279 22.1383 4.56739 21.1811 4.96486C20.2239 5.36233 19.3545 5.94484 18.6229 6.679L17.5 7.8165L16.3771 6.679C15.6455 5.94484 14.7761 5.36233 13.8189 4.96486C12.8617 4.56739 11.8354 4.36279 10.799 4.36279C9.7625 4.36279 8.73624 4.56739 7.77902 4.96486C6.8218 5.36233 5.95245 5.94484 5.22084 6.679C2.12917 9.77067 1.93959 14.9915 5.83334 18.9582L17.5 30.6248L29.1667 18.9582C33.0604 14.9915 32.8708 9.77067 29.7792 6.679Z" stroke="black" stroke-width="2" stroke-linecap="round" stroke-linejoin="round"/>
</svg>
