<svg width="35" height="35" viewBox="0 0 35 35" fill="none" xmlns="http://www.w3.org/2000/svg">
<path d="M26.25 11.6665C28.6662 11.6665 30.625 9.70775 30.625 7.2915C30.625 4.87526 28.6662 2.9165 26.25 2.9165C23.8338 2.9165 21.875 4.87526 21.875 7.2915C21.875 9.70775 23.8338 11.6665 26.25 11.6665Z" stroke="black" stroke-width="2" stroke-linecap="round" stroke-linejoin="round"/>
<path d="M8.75 21.875C11.1662 21.875 13.125 19.9162 13.125 17.5C13.125 15.0838 11.1662 13.125 8.75 13.125C6.33375 13.125 4.375 15.0838 4.375 17.5C4.375 19.9162 6.33375 21.875 8.75 21.875Z" stroke="black" stroke-width="2" stroke-linecap="round" stroke-linejoin="round"/>
<path d="M26.25 32.0835C28.6662 32.0835 30.625 30.1247 30.625 27.7085C30.625 25.2922 28.6662 23.3335 26.25 23.3335C23.8338 23.3335 21.875 25.2922 21.875 27.7085C21.875 30.1247 23.8338 32.0835 26.25 32.0835Z" stroke="black" stroke-width="2" stroke-linecap="round" stroke-linejoin="round"/>
<path d="M12.5271 19.7021L22.4875 25.5063" stroke="black" stroke-width="2" stroke-linecap="round" stroke-linejoin="round"/>
<path d="M22.4729 9.49365L12.5271 15.2978" stroke="black" stroke-width="2" stroke-linecap="round" stroke-linejoin="round"/>
</svg>
